<svg xmlns="http://www.w3.org/2000/svg" viewBox="0 0 100 100" width="100" height="100">

  <rect x="2" y="2" width="96" height="96" rx="22" fill="#1a1b2e"/>

  <line x1="14" y1="74" x2="86" y2="74" stroke="#ffffff" stroke-width="0.5" opacity="0.08"/>
  <line x1="14" y1="57" x2="86" y2="57" stroke="#ffffff" stroke-width="0.5" opacity="0.08"/>
  <line x1="14" y1="40" x2="86" y2="40" stroke="#ffffff" stroke-width="0.5" opacity="0.08"/>
  <line x1="14" y1="23" x2="86" y2="23" stroke="#ffffff" stroke-width="0.5" opacity="0.08"/>

  <line x1="28" y1="15" x2="28" y2="23" stroke="#e05c5c" stroke-width="2.5" stroke-linecap="round"/>
  <line x1="28" y1="62" x2="28" y2="70" stroke="#e05c5c" stroke-width="2.5" stroke-linecap="round"/>
  <rect x="19" y="28" width="14" height="34" fill="#e05c5c"/>
  <path d="M19,28 L23,23 L37,23 L33,28 Z" fill="#f08080"/>
  <path d="M33,28 L37,23 L37,57 L33,62 Z" fill="#b03030"/>
  <rect x="19" y="59" width="14" height="3" fill="#e05c5c"/>

  <line x1="52" y1="11" x2="52" y2="21" stroke="#43b97f" stroke-width="2.5" stroke-linecap="round"/>
  <line x1="52" y1="54" x2="52" y2="64" stroke="#43b97f" stroke-width="2.5" stroke-linecap="round"/>
  <rect x="43" y="26" width="14" height="28" fill="#43b97f"/>
  <path d="M43,26 L47,21 L61,21 L57,26 Z" fill="#6dd4a0"/>
  <path d="M57,26 L61,21 L61,49 L57,54 Z" fill="#2a8a57"/>
  <rect x="43" y="51" width="14" height="3" fill="#43b97f"/>

  <line x1="76" y1="5" x2="76" y2="15" stroke="#43b97f" stroke-width="2.5" stroke-linecap="round"/>
  <line x1="76" y1="62" x2="76" y2="72" stroke="#43b97f" stroke-width="2.5" stroke-linecap="round"/>
  <rect x="67" y="20" width="14" height="42" fill="#43b97f"/>
  <path d="M67,20 L71,15 L85,15 L81,20 Z" fill="#6dd4a0"/>
  <path d="M81,20 L85,15 L85,57 L81,62 Z" fill="#2a8a57"/>
  <rect x="67" y="59" width="14" height="3" fill="#43b97f"/>

  <line x1="10" y1="80" x2="90" y2="80"
    stroke="#ffffff" stroke-width="1.5" stroke-linecap="round" opacity="0.2"/>

</svg>
